<?xml version="1.0" standalone="no"?>
<!DOCTYPE svg PUBLIC "-//W3C//DTD SVG 20010904//EN"
 "http://www.w3.org/TR/2001/REC-SVG-20010904/DTD/svg10.dtd">
<svg version="1.0" xmlns="http://www.w3.org/2000/svg"
 width="227.000000pt" height="133.000000pt" viewBox="0 0 227.000000 133.000000"
 preserveAspectRatio="xMidYMid meet">

<g transform="translate(0.000000,133.000000) scale(0.100000,-0.100000)"
fill="#000000" stroke="none">
<path d="M718 1178 l-3 -83 -30 -3 c-16 -2 -63 4 -102 13 -103 24 -269 18
-338 -13 -93 -43 -135 -101 -135 -189 0 -51 24 -101 63 -134 28 -24 99 -45
202 -59 44 -7 88 -16 98 -21 23 -13 22 -46 -2 -59 -36 -19 -161 -11 -236 15
-38 13 -73 20 -77 17 -3 -4 -18 -36 -33 -71 -26 -62 -26 -65 -8 -78 44 -33
127 -48 263 -48 120 0 141 3 185 23 91 42 135 101 135 182 0 56 -22 103 -61
132 -43 32 -79 44 -192 64 -129 22 -152 39 -107 79 16 15 33 17 107 13 55 -3
100 -11 120 -21 20 -11 55 -17 93 -17 l60 0 0 -147 c0 -169 11 -205 73 -260
46 -40 91 -53 189 -53 80 0 125 11 144 35 9 12 18 10 59 -10 39 -20 63 -25
126 -25 91 0 122 10 167 53 l32 31 0 -37 0 -37 105 0 105 0 0 198 c0 290 -23
355 -145 417 -52 26 -73 30 -160 33 -114 5 -186 -7 -263 -43 l-53 -24 37 -73
c20 -40 38 -74 39 -76 2 -2 22 7 46 19 53 26 152 36 203 19 33 -10 66 -50 66
-78 0 -5 -56 -12 -125 -15 -112 -4 -132 -8 -183 -33 -64 -32 -96 -73 -106
-132 -6 -42 -19 -52 -66 -52 -19 0 -36 9 -49 26 -19 24 -21 40 -21 145 l0 119
75 0 75 0 0 85 0 85 -75 0 -75 0 0 85 0 85 -110 0 -109 0 -3 -82z m772 -482
c0 -56 -35 -88 -102 -94 -50 -4 -57 -2 -76 23 -28 36 -28 50 3 80 21 22 33 25
100 25 l75 0 0 -34z"/>
<path d="M2063 1102 c-23 -9 -54 -27 -68 -39 l-25 -23 0 35 0 35 -110 0 -110
0 0 -320 0 -320 115 0 115 0 0 175 c0 139 3 182 15 206 23 44 71 69 132 69
l52 0 3 100 3 100 -40 -1 c-22 0 -59 -8 -82 -17z"/>
<path d="M135 269 c-3 -8 -13 -56 -24 -107 l-19 -93 37 3 c29 2 37 8 39 25 4
30 16 29 36 -2 13 -19 25 -25 52 -25 l36 0 -16 26 c-17 24 -16 26 7 44 29 23
39 64 25 96 -13 28 -27 34 -105 41 -48 5 -64 3 -68 -8z m103 -71 c-2 -15 -11
-24 -25 -26 -19 -3 -23 1 -23 22 0 21 5 26 26 26 21 0 25 -4 22 -22z"/>
<path d="M355 258 c-11 -50 -35 -170 -35 -179 0 -5 38 -9 84 -9 67 0 85 3 90
16 11 30 6 34 -44 34 -38 0 -50 4 -50 15 0 11 12 15 44 15 31 0 46 5 50 16 11
29 6 34 -39 34 -25 0 -45 5 -45 10 0 6 24 10 54 10 49 0 54 2 58 25 3 13 3 27
0 30 -3 3 -40 5 -83 5 -73 0 -79 -2 -84 -22z"/>
<path d="M562 263 c-5 -10 -15 -47 -21 -83 -7 -36 -15 -75 -18 -87 -5 -21 -1
-23 30 -23 34 0 35 2 44 48 l9 47 30 -47 c24 -41 34 -48 60 -48 l31 0 20 100
c11 55 18 102 15 105 -3 3 -18 5 -33 5 -23 0 -28 -5 -34 -32 -14 -71 -14 -71
-48 -21 -35 52 -69 67 -85 36z"/>
<path d="M786 264 c-13 -33 -6 -44 24 -44 26 0 30 -3 25 -22 -14 -64 -25 -114
-25 -120 0 -5 15 -8 34 -8 l34 0 13 73 c14 70 15 72 46 75 30 3 50 32 37 54
-3 4 -45 8 -94 8 -71 0 -89 -3 -94 -16z"/>
<path d="M1098 178 l-65 -103 35 -3 c24 -2 38 2 44 12 12 21 86 22 94 1 4 -9
19 -15 39 -15 l32 0 -18 83 c-27 115 -33 127 -68 127 -25 0 -35 -11 -93 -102z
m92 -3 c0 -18 -5 -25 -20 -25 -17 0 -18 3 -8 25 6 14 15 25 20 25 4 0 8 -11 8
-25z"/>
<path d="M1460 263 c-21 -11 -42 -33 -54 -56 -36 -76 12 -147 99 -147 29 0 85
26 85 39 0 16 -38 43 -45 32 -3 -6 -20 -11 -36 -11 -41 0 -59 38 -35 75 17 26
62 35 82 16 5 -6 18 -3 34 9 23 18 24 20 9 36 -25 25 -97 29 -139 7z"/>
<path d="M1678 213 c-24 -37 -54 -85 -67 -105 l-23 -38 36 0 c23 0 39 5 42 15
9 21 94 21 94 0 0 -10 11 -15 35 -15 42 0 42 1 12 120 -21 83 -23 85 -54 88
-29 3 -35 -2 -75 -65z m72 -50 c0 -7 -9 -13 -20 -13 -23 0 -24 3 -8 30 13 20
28 10 28 -17z"/>
<path d="M1893 264 c-6 -11 -16 -48 -22 -84 -7 -36 -15 -75 -18 -87 -5 -21 -1
-23 30 -23 29 0 36 4 41 25 4 14 11 25 16 25 6 0 16 -11 22 -25 9 -20 18 -25
50 -25 l38 0 -16 25 c-16 24 -15 26 10 51 31 32 35 83 7 108 -11 10 -44 19
-83 23 -58 5 -67 3 -75 -13z m102 -69 c0 -14 -8 -21 -27 -23 -28 -3 -33 4 -22
33 9 23 49 15 49 -10z"/>
</g>
</svg>
